<svg width="30" height="29" viewBox="0 0 30 29" fill="none" xmlns="http://www.w3.org/2000/svg">
<rect width="30" height="29" fill="#313131"/>
<g clip-path="url(#clip0_0_1)">
<rect width="1964" height="491" transform="matrix(-1 0 0 1 771 -447)" fill="black"/>
<path d="M28.8714 17.2356C28.5358 15.982 27.9113 14.8245 27.048 13.8556C26.1847 12.8867 25.1065 12.1335 23.8998 11.6561C22.6931 11.1788 21.3913 10.9907 20.0988 11.1068C18.8063 11.2229 17.559 11.64 16.4567 12.3248L18.7271 3.25966C18.7834 3.03444 18.7676 2.79721 18.6819 2.58147C18.5961 2.36572 18.4448 2.18236 18.2492 2.05725C17.3066 1.46208 16.254 1.06259 15.1539 0.882554C14.0538 0.702518 12.9287 0.745614 11.8456 1.00928C10.7625 1.27294 9.74351 1.75179 8.84925 2.41732C7.95499 3.08285 7.20374 3.92147 6.64021 4.88327C6.07668 5.84508 5.71238 6.91041 5.56899 8.01588C5.4256 9.12136 5.50605 10.2444 5.80555 11.3181C6.10505 12.3919 6.61749 13.3944 7.31236 14.2661C8.00723 15.1377 8.87034 15.8607 9.85034 16.392L0.864134 18.9588C0.640886 19.0224 0.443238 19.1545 0.299081 19.3364C0.154923 19.5184 0.0715347 19.741 0.0606814 19.9729C-0.0246077 21.865 0.538924 23.7295 1.65796 25.2577C2.77699 26.7858 4.38441 27.886 6.21402 28.3759C6.9197 28.5654 7.64713 28.6618 8.3778 28.6626C9.49122 28.6597 10.5927 28.4333 11.6171 27.9969C12.6414 27.5606 13.5678 26.9231 14.3413 26.1222C15.1147 25.3213 15.7197 24.3733 16.1201 23.3344C16.5206 22.2955 16.7085 21.1868 16.6728 20.074L23.3885 26.5736C23.5555 26.7352 23.7691 26.8402 23.999 26.8738C24.229 26.9073 24.4637 26.8678 24.6699 26.7606C26.3502 25.8888 27.6826 24.4694 28.4466 22.7374C29.2106 21.0053 29.3605 19.0644 28.8714 17.2356ZM12.1097 16.2659C12.1097 15.8275 12.2397 15.399 12.4832 15.0345C12.7268 14.67 13.0729 14.3859 13.4779 14.2182C13.8829 14.0504 14.3286 14.0065 14.7585 14.0921C15.1885 14.1776 15.5834 14.3887 15.8934 14.6986C16.2033 15.0086 16.4144 15.4036 16.5 15.8335C16.5855 16.2634 16.5416 16.7091 16.3738 17.1141C16.2061 17.5191 15.922 17.8652 15.5575 18.1088C15.193 18.3523 14.7645 18.4823 14.3261 18.4823C13.7383 18.4823 13.1745 18.2488 12.7589 17.8331C12.3432 17.4175 12.1097 16.8537 12.1097 16.2659ZM7.67686 9.06253C7.67651 8.03548 7.93569 7.02501 8.43033 6.12492C8.92497 5.22484 9.63903 4.46434 10.5062 3.91405C11.3734 3.36376 12.3656 3.04151 13.3906 2.97724C14.4156 2.91297 15.4403 3.10875 16.3694 3.54641L14.2943 11.8331C13.5002 11.839 12.7224 12.0581 12.042 12.4675C11.3617 12.8769 10.8038 13.4615 10.4266 14.1603C9.58008 13.6067 8.8852 12.8505 8.40501 11.9603C7.92482 11.07 7.67453 10.074 7.67686 9.06253ZM11.4171 25.6261C10.5278 26.1399 9.52318 26.4207 8.4964 26.4424C7.46962 26.4641 6.454 26.226 5.54386 25.7502C4.63372 25.2744 3.85856 24.5763 3.29035 23.7208C2.72215 22.8653 2.37933 21.8801 2.29373 20.8567L10.5097 18.51C10.9003 19.1754 11.4579 19.7274 12.1272 20.1112C12.7966 20.4951 13.5545 20.6976 14.3261 20.6987H14.4522C14.3964 21.7078 14.0896 22.6869 13.5596 23.5474C13.0296 24.4079 12.2932 25.1224 11.4171 25.6261ZM26.1244 22.44C25.6761 23.2179 25.0611 23.8868 24.3236 24.3988L18.1841 18.4574C18.577 17.7673 18.7767 16.9842 18.7623 16.1903C18.7479 15.3963 18.52 14.621 18.1024 13.9456C19.2745 13.3538 20.6064 13.1565 21.8998 13.3828C23.1932 13.6092 24.379 14.2471 25.2805 15.2018C26.1821 16.1564 26.7512 17.3767 26.9033 18.6809C27.0554 19.9851 26.7822 21.3036 26.1244 22.44Z" fill="white"/>
</g>
<defs>
<clipPath id="clip0_0_1">
<rect width="1964" height="491" fill="white" transform="matrix(-1 0 0 1 771 -447)"/>
</clipPath>
</defs>
</svg>
